<svg xmlns="http://www.w3.org/2000/svg" xmlns:svg="http://www.w3.org/2000/svg" id="svg2" width="210mm" height="297mm" version="1.1" viewBox="0 0 744.094 1052.362"><metadata id="metadata7"/><g id="layer1"><rect style="opacity:1;fill:#fff;fill-opacity:1;stroke:#000;stroke-width:1;stroke-linejoin:bevel;stroke-miterlimit:4;stroke-dasharray:none;stroke-dashoffset:0;stroke-opacity:1" id="rect4178" width="300.52" height="179.807" x="53.033" y="218.986"/><path id="path4142" d="m -180.58887,309.39502 a 83.337585,83.337585 0 0 1 -83.2655,83.33755 83.337585,83.337585 0 0 1 -83.40954,-83.19338 83.337585,83.337585 0 0 1 83.12121,-83.48148 83.337585,83.337585 0 0 1 83.55333,83.04898" transform="scale(-1,1)" style="opacity:1;fill:#2526fb;fill-opacity:1;stroke:none;stroke-width:2;stroke-linejoin:bevel;stroke-miterlimit:4;stroke-dasharray:none;stroke-dashoffset:0;stroke-opacity:1"/><path style="opacity:1;fill:#fa0505;fill-opacity:1;stroke:none;stroke-width:2;stroke-linejoin:miter;stroke-miterlimit:4;stroke-dasharray:none;stroke-dashoffset:0;stroke-opacity:1" id="path4140" d="m 225.26402,309.39502 a 83.337585,83.337585 0 0 1 -83.08432,83.3372 83.337585,83.337585 0 0 1 -83.589309,-82.83067 83.337585,83.337585 0 0 1 82.576259,-83.84065 83.337585,83.337585 0 0 1 84.09122,82.32108"/><path style="opacity:1;fill:#fff;fill-opacity:1;stroke:none;stroke-width:2;stroke-linejoin:bevel;stroke-miterlimit:4;stroke-dasharray:none;stroke-dashoffset:0;stroke-opacity:1" id="path4173" d="M 202.91797 252.73633 A 83.337585 83.337585 0 0 0 180.58984 309.10742 L 180.58984 309.39453 A 83.337585 83.337585 0 0 0 202.92578 366.02344 A 83.337585 83.337585 0 0 0 225.26367 309.39453 L 225.25781 308.38281 A 83.337585 83.337585 0 0 0 202.91797 252.73633 z"/></g></svg>